<svg id="svg" version="1.1" xmlns="http://www.w3.org/2000/svg" xmlns:xlink="http://www.w3.org/1999/xlink" width="400" height="400.86206896551727" viewBox="0, 0, 400,400.86206896551727"><g id="svgg"><path id="path0" d="M148.930 18.154 C 148.011 18.453,146.661 19.073,145.930 19.531 C 142.456 21.707,17.671 147.352,17.148 149.200 C 16.355 152.000,16.472 158.576,17.360 161.200 C 18.060 163.268,19.373 164.672,39.313 184.675 C 50.978 196.376,60.652 206.161,60.812 206.419 C 60.971 206.676,70.890 216.723,82.855 228.744 C 94.820 240.765,114.032 260.096,125.549 271.702 C 149.642 295.981,147.371 294.267,154.972 293.909 C 161.031 293.623,160.116 294.324,178.495 275.887 C 262.187 191.924,289.577 164.411,290.578 163.300 L 291.750 162.000 253.934 162.000 L 216.119 162.000 191.159 187.090 C 177.432 200.889,165.210 213.200,164.000 214.447 C 160.784 217.762,155.050 218.919,149.185 217.437 L 146.600 216.783 137.568 207.692 C 92.820 162.646,92.732 162.544,92.681 155.268 C 92.629 147.886,90.502 150.564,119.529 121.472 C 133.538 107.432,145.630 95.618,146.400 95.219 C 150.170 93.268,156.937 93.082,160.689 94.828 C 162.776 95.799,169.373 102.129,205.985 138.289 L 216.200 148.378 253.900 148.389 C 275.545 148.395,291.600 148.249,291.600 148.046 C 291.600 147.737,252.247 108.538,182.881 39.751 C 159.902 16.965,161.105 17.902,154.600 17.721 C 152.023 17.650,150.006 17.804,148.930 18.154 " stroke="none" fill="#f3f3f3" fill-rule="evenodd"></path><path id="path1" d="M0.400 352.383 L 0.400 372.000 9.700 371.994 C 22.303 371.985,24.761 371.371,26.600 367.768 C 27.040 366.905,27.545 366.093,27.721 365.963 C 28.433 365.439,28.784 360.047,28.792 349.526 C 28.801 337.339,28.765 337.117,26.362 334.665 L 24.730 333.000 12.565 332.883 L 0.400 332.767 0.400 352.383 M31.600 352.400 L 31.600 372.000 37.400 372.000 L 43.200 372.000 43.200 357.000 L 43.200 342.000 45.786 342.000 C 47.933 342.000,48.442 342.131,48.786 342.774 C 49.503 344.113,49.259 344.400,47.400 344.400 L 45.600 344.400 45.600 347.800 L 45.600 351.200 46.800 351.200 L 48.000 351.200 48.000 361.600 L 48.000 372.000 53.800 372.000 L 59.600 372.000 59.600 361.787 C 59.600 350.855,59.375 349.350,57.595 348.397 L 56.722 347.930 57.563 347.341 C 59.646 345.882,60.553 338.338,58.924 336.013 C 56.701 332.840,56.506 332.800,43.174 332.800 L 31.600 332.800 31.600 352.400 M63.279 350.700 C 63.458 374.031,62.007 371.800,77.000 371.800 C 92.820 371.800,91.365 373.913,91.519 350.718 L 91.638 332.800 85.619 332.800 L 79.600 332.800 79.600 348.786 C 79.600 366.522,79.666 366.105,76.949 365.423 C 75.314 365.013,75.200 363.872,75.200 347.974 L 75.200 332.800 69.171 332.800 L 63.142 332.800 63.279 350.700 M94.800 352.400 L 94.800 372.000 100.600 372.000 L 106.400 372.000 106.400 357.000 L 106.400 342.000 107.938 342.000 C 110.835 342.000,110.777 341.688,110.895 357.626 L 111.000 371.800 115.700 371.913 L 120.400 372.025 120.400 357.013 L 120.400 342.000 121.971 342.000 C 123.516 342.000,124.790 342.776,124.810 343.729 C 124.815 343.988,124.811 350.455,124.800 358.100 L 124.781 372.000 130.806 372.000 L 136.831 372.000 136.715 353.900 C 136.604 336.470,136.570 335.748,135.778 334.400 L 134.956 333.000 128.512 332.890 C 122.211 332.783,122.042 332.802,120.952 333.740 L 119.836 334.700 119.089 333.750 L 118.342 332.800 106.571 332.800 L 94.800 332.800 94.800 352.400 M140.000 352.400 L 140.000 372.000 145.800 372.000 L 151.600 372.000 151.600 357.000 L 151.600 342.000 153.014 342.000 C 153.792 342.000,154.872 342.291,155.414 342.646 L 156.400 343.292 156.400 357.646 L 156.400 372.000 161.000 372.000 L 165.600 372.000 165.600 357.000 L 165.600 342.000 167.138 342.000 C 170.061 342.000,170.000 341.665,170.000 357.731 L 170.000 372.000 176.015 372.000 L 182.031 372.000 181.915 353.900 C 181.804 336.470,181.770 335.748,180.978 334.400 L 180.156 333.000 173.830 332.890 C 167.616 332.781,167.479 332.797,166.191 333.780 L 164.879 334.780 164.230 333.790 L 163.582 332.800 151.791 332.800 L 140.000 332.800 140.000 352.400 M185.603 346.483 C 185.608 370.305,186.917 372.439,201.200 371.916 C 207.942 371.669,210.504 370.517,212.346 366.905 C 215.221 361.270,214.536 334.400,211.517 334.400 C 211.281 334.400,210.858 334.085,210.577 333.700 C 210.112 333.064,208.941 332.989,197.833 332.883 L 185.600 332.767 185.603 346.483 M217.600 352.383 L 217.600 372.000 223.600 372.000 L 229.600 372.000 229.600 357.000 L 229.600 342.000 231.026 342.000 C 234.184 342.000,234.000 341.047,234.000 357.414 L 234.000 372.000 240.000 372.000 L 246.000 372.000 246.000 355.187 C 246.000 336.548,246.040 336.863,243.374 334.400 L 241.858 333.000 229.729 332.883 L 217.600 332.767 217.600 352.383 M248.400 352.413 L 248.400 372.059 258.900 371.928 C 276.444 371.710,276.400 371.764,276.400 350.508 C 276.400 336.375,276.417 336.490,274.010 334.200 L 272.749 333.000 260.574 332.883 L 248.400 332.767 248.400 352.413 M296.800 352.400 L 296.800 372.000 311.000 372.000 L 325.200 372.000 325.200 367.400 L 325.200 362.800 316.800 362.800 L 308.400 362.800 308.400 347.800 L 308.400 332.800 302.600 332.800 L 296.800 332.800 296.800 352.400 M328.000 337.400 L 328.000 342.000 332.000 342.000 L 336.000 342.000 336.000 357.000 L 336.000 372.000 342.000 372.000 L 348.000 372.000 348.000 357.000 L 348.000 342.000 352.200 342.000 L 356.400 342.000 356.400 337.400 L 356.400 332.800 342.200 332.800 L 328.000 332.800 328.000 337.400 M359.200 352.429 L 359.200 372.059 369.700 371.920 C 387.412 371.685,387.200 371.942,387.200 350.745 C 387.200 331.606,388.293 332.800,370.774 332.800 L 359.200 332.800 359.200 352.429 M18.284 343.200 C 18.916 344.454,18.993 359.089,18.379 361.300 L 17.962 362.800 14.981 362.800 L 12.000 362.800 12.000 352.382 L 12.000 341.965 14.890 342.082 C 17.514 342.189,17.826 342.292,18.284 343.200 M202.384 342.392 C 204.305 343.420,204.846 357.352,203.100 360.815 C 201.780 363.432,199.638 363.626,198.420 361.239 C 197.165 358.780,197.172 344.651,198.429 343.054 C 199.309 341.935,201.002 341.652,202.384 342.392 M265.986 342.774 C 266.236 343.240,266.400 347.063,266.400 352.400 C 266.400 363.093,266.502 362.800,262.786 362.800 L 260.000 362.800 260.000 352.400 L 260.000 342.000 262.786 342.000 C 265.131 342.000,265.637 342.122,265.986 342.774 M376.720 342.480 C 376.984 342.744,377.200 343.284,377.200 343.680 C 377.200 344.076,377.380 344.400,377.600 344.400 C 378.188 344.400,378.130 359.359,377.538 360.505 C 377.284 360.997,376.950 361.670,376.796 362.000 C 376.594 362.433,375.722 362.633,373.658 362.718 L 370.800 362.835 370.800 352.418 L 370.800 342.000 373.520 342.000 C 375.102 342.000,376.441 342.201,376.720 342.480 M390.000 368.000 L 390.000 372.000 395.000 372.000 L 400.000 372.000 400.000 368.000 L 400.000 364.000 395.000 364.000 L 390.000 364.000 390.000 368.000 M1.672 388.300 C 1.849 400.351,2.288 401.005,10.030 400.735 C 15.046 400.561,17.200 398.635,17.200 394.325 L 17.200 392.800 14.400 392.800 C 11.964 392.800,11.600 392.894,11.600 393.525 C 11.600 393.923,11.209 394.669,10.731 395.182 L 9.861 396.116 9.131 395.214 C 8.340 394.237,8.044 386.782,8.751 385.665 C 9.258 384.866,10.944 385.271,11.395 386.300 C 11.748 387.106,12.073 387.200,14.495 387.200 L 17.200 387.200 17.200 384.583 C 17.200 380.134,16.192 379.600,7.798 379.600 L 1.544 379.600 1.672 388.300 M19.272 388.073 C 19.497 399.952,20.031 400.800,27.282 400.800 C 34.242 400.800,34.800 399.938,34.800 389.190 L 34.800 381.218 33.719 380.509 C 32.815 379.916,31.533 379.779,25.874 379.673 L 19.110 379.546 19.272 388.073 M36.800 390.200 L 36.800 400.800 44.600 400.800 L 52.400 400.800 52.400 398.400 L 52.400 396.000 48.000 396.000 L 43.600 396.000 43.600 387.800 L 43.600 379.600 40.200 379.600 L 36.800 379.600 36.800 390.200 M54.879 388.495 L 55.000 397.443 56.489 399.022 L 57.979 400.600 61.918 400.735 C 69.541 400.997,70.144 400.196,70.330 389.558 C 70.461 382.121,70.460 382.114,69.466 380.958 L 68.471 379.800 61.614 379.673 L 54.757 379.547 54.879 388.495 M72.800 390.181 L 72.800 400.800 76.000 400.800 L 79.200 400.800 79.200 392.800 C 79.200 388.400,79.302 384.800,79.426 384.800 C 81.075 384.800,81.200 385.393,81.200 393.214 L 81.200 400.800 84.000 400.800 L 86.800 400.800 86.800 392.757 C 86.800 385.588,86.869 384.741,87.433 384.957 C 87.781 385.091,88.141 385.200,88.233 385.200 C 88.325 385.200,88.400 388.710,88.400 393.000 L 88.400 400.800 92.000 400.800 L 95.600 400.800 95.600 391.000 C 95.600 378.903,95.856 379.443,90.272 379.739 C 88.253 379.846,86.420 379.928,86.200 379.921 C 85.980 379.914,82.875 379.831,79.300 379.735 L 72.800 379.562 72.800 390.181 M97.600 390.166 L 97.600 400.800 100.800 400.800 L 104.000 400.800 104.000 392.800 L 104.000 384.800 104.967 384.800 C 106.192 384.800,107.200 385.181,107.200 385.643 C 107.200 385.839,106.650 386.000,105.978 386.000 C 104.186 386.000,104.289 389.718,106.087 389.925 C 108.235 390.173,108.052 395.675,105.887 395.927 C 104.841 396.048,104.800 396.142,104.800 398.427 L 104.800 400.800 106.592 400.800 C 109.078 400.800,111.502 399.750,112.219 398.362 C 113.513 395.860,113.288 388.000,111.923 388.000 C 111.677 388.000,111.804 387.637,112.206 387.194 C 113.459 385.809,113.499 382.392,112.279 380.973 L 111.271 379.800 104.435 379.666 L 97.600 379.533 97.600 390.166 M114.800 390.200 L 114.800 400.800 118.200 400.800 L 121.600 400.800 121.600 390.200 L 121.600 379.600 118.200 379.600 L 114.800 379.600 114.800 390.200 M124.000 390.200 L 124.000 400.800 127.400 400.800 L 130.800 400.800 130.800 392.800 C 130.800 384.332,130.751 384.530,132.700 385.052 C 133.997 385.400,133.807 386.000,132.400 386.000 C 131.227 386.000,131.200 386.044,131.200 388.000 C 131.200 389.733,131.307 390.000,132.000 390.000 C 132.760 390.000,132.800 390.267,132.800 395.400 L 132.800 400.800 136.200 400.800 L 139.600 400.800 139.594 391.300 C 139.591 386.075,139.456 381.600,139.294 381.356 C 138.377 379.969,136.467 379.600,130.220 379.600 L 124.000 379.600 124.000 390.200 M29.000 390.315 C 29.000 395.162,28.789 395.967,27.510 395.994 C 26.672 396.012,26.000 393.429,26.000 390.194 C 26.000 386.128,26.403 385.100,27.927 385.276 L 29.000 385.400 29.000 390.315 M64.410 386.226 C 64.936 387.610,64.905 392.779,64.361 394.340 C 63.239 397.557,61.606 394.945,61.602 389.926 C 61.599 386.650,62.090 385.200,63.200 385.200 C 63.712 385.200,64.166 385.585,64.410 386.226 " stroke="none" fill="#241c24" fill-rule="evenodd"></path><path id="path2" d="M0.000 155.000 L 0.000 310.000 119.974 310.000 C 222.651 310.000,240.341 309.917,242.676 309.426 C 245.629 308.805,252.052 306.557,252.391 306.026 C 252.506 305.846,253.969 305.050,255.642 304.258 C 257.315 303.466,260.321 301.744,262.321 300.430 C 264.322 299.117,266.512 297.756,267.188 297.406 C 267.865 297.056,269.262 295.877,270.292 294.785 C 271.322 293.693,272.349 292.800,272.573 292.800 C 272.798 292.800,275.273 290.460,278.075 287.600 C 280.876 284.740,283.314 282.400,283.492 282.400 C 283.670 282.400,286.199 279.970,289.112 277.000 C 292.025 274.030,294.538 271.600,294.698 271.600 C 294.857 271.600,297.510 269.106,300.594 266.059 C 303.677 263.011,308.990 257.827,312.400 254.538 C 367.364 201.526,387.511 181.559,392.454 175.200 C 402.515 162.256,402.710 148.956,393.018 136.853 C 391.578 135.054,390.400 133.501,390.400 133.401 C 390.400 133.150,387.009 129.706,370.052 112.738 C 352.300 94.973,339.309 82.192,302.417 46.191 C 297.678 41.566,290.020 34.093,285.400 29.584 C 272.298 16.797,268.625 13.398,267.159 12.701 C 266.412 12.345,265.193 11.512,264.452 10.849 C 263.711 10.186,262.361 9.277,261.452 8.829 C 260.543 8.381,258.103 7.025,256.029 5.815 C 253.954 4.605,250.804 3.060,249.029 2.382 C 242.334 -0.176,251.849 0.000,120.174 0.000 L 0.000 0.000 0.000 155.000 M159.755 18.015 L 162.393 18.830 189.886 46.115 C 205.006 61.122,230.343 86.284,246.189 102.030 C 262.035 117.777,279.005 134.621,283.900 139.463 C 288.795 144.304,292.800 148.385,292.800 148.532 C 292.800 148.680,275.565 148.796,254.500 148.790 L 216.200 148.781 211.000 143.724 C 208.140 140.943,196.416 129.425,184.946 118.127 C 161.682 95.212,161.928 95.434,158.878 94.547 C 155.935 93.692,150.072 93.944,147.720 95.027 C 145.576 96.014,95.534 145.377,94.376 147.647 C 92.749 150.836,92.596 158.419,94.086 161.958 C 94.530 163.012,111.095 180.218,139.200 208.818 C 148.341 218.120,150.175 218.900,158.880 217.182 L 161.000 216.763 188.400 189.176 L 215.800 161.588 254.265 161.694 L 292.731 161.800 227.465 227.301 C 177.806 277.139,161.817 292.959,160.600 293.458 C 158.200 294.443,151.993 294.646,148.800 293.845 L 146.200 293.193 135.013 281.896 C 128.861 275.683,114.191 260.880,102.413 249.000 C 39.242 185.279,18.149 163.860,17.673 162.951 C 15.987 159.733,15.670 152.953,16.999 148.536 C 17.979 145.281,144.712 19.211,148.172 18.049 C 151.468 16.943,156.238 16.929,159.755 18.015 M294.508 299.771 C 291.876 300.960,290.566 305.945,292.252 308.353 C 294.248 311.203,300.644 311.008,302.173 308.051 C 304.820 302.933,299.715 297.418,294.508 299.771 M298.948 301.916 C 299.056 302.090,298.482 302.167,297.672 302.087 C 295.458 301.869,295.195 301.667,297.076 301.632 C 297.998 301.614,298.841 301.742,298.948 301.916 M294.800 305.000 C 294.800 307.125,294.344 307.873,293.843 306.567 C 293.323 305.211,293.707 302.800,294.443 302.800 C 294.639 302.800,294.800 303.790,294.800 305.000 M300.557 303.433 C 300.915 304.366,300.841 306.115,300.416 306.788 C 299.950 307.524,299.702 307.286,299.595 306.000 C 299.366 303.254,299.921 301.775,300.557 303.433 M297.600 307.200 C 297.600 307.640,297.825 308.005,298.100 308.012 C 298.394 308.019,298.326 308.184,297.935 308.412 C 297.516 308.657,296.925 308.662,296.335 308.426 C 295.642 308.148,295.581 308.044,296.100 308.025 C 296.525 308.010,296.800 307.686,296.800 307.200 C 296.800 306.760,296.980 306.400,297.200 306.400 C 297.420 306.400,297.600 306.760,297.600 307.200 " stroke="none" fill="#c4041c" fill-rule="evenodd"></path><path id="path3" d="M152.691 17.489 C 153.401 17.577,154.661 17.579,155.491 17.492 C 156.321 17.405,155.740 17.333,154.200 17.331 C 152.660 17.329,151.981 17.400,152.691 17.489 M175.200 32.200 C 182.127 39.130,187.885 44.800,187.995 44.800 C 188.105 44.800,182.527 39.130,175.600 32.200 C 168.673 25.270,162.915 19.600,162.805 19.600 C 162.695 19.600,168.273 25.270,175.200 32.200 M140.778 23.900 L 139.400 25.400 140.900 24.022 C 141.725 23.263,142.400 22.588,142.400 22.522 C 142.400 22.216,142.062 22.504,140.778 23.900 M76.698 87.903 C 43.974 120.630,17.205 147.675,17.212 148.003 C 17.221 148.414,17.359 148.351,17.658 147.800 C 17.897 147.360,44.756 120.315,77.345 87.700 C 109.935 55.085,136.508 28.400,136.398 28.400 C 136.287 28.400,109.422 55.176,76.698 87.903 M217.400 74.000 C 225.538 82.140,232.286 88.800,232.396 88.800 C 232.506 88.800,225.938 82.140,217.800 74.000 C 209.662 65.860,202.914 59.200,202.804 59.200 C 202.694 59.200,209.262 65.860,217.400 74.000 M235.400 92.000 C 236.706 93.320,237.865 94.400,237.975 94.400 C 238.085 94.400,237.106 93.320,235.800 92.000 C 234.494 90.680,233.335 89.600,233.225 89.600 C 233.115 89.600,234.094 90.680,235.400 92.000 M241.000 97.600 C 242.306 98.920,243.465 100.000,243.575 100.000 C 243.685 100.000,242.706 98.920,241.400 97.600 C 240.094 96.280,238.935 95.200,238.825 95.200 C 238.715 95.200,239.694 96.280,241.000 97.600 M119.799 121.300 L 94.200 147.000 119.900 121.401 C 143.790 97.605,145.779 95.600,145.499 95.600 C 145.443 95.600,133.878 107.165,119.799 121.300 M166.200 99.600 C 168.392 101.800,170.275 103.600,170.385 103.600 C 170.495 103.600,168.792 101.800,166.600 99.600 C 164.408 97.400,162.525 95.600,162.415 95.600 C 162.305 95.600,164.008 97.400,166.200 99.600 M186.200 119.200 C 190.596 123.600,194.282 127.200,194.392 127.200 C 194.502 127.200,190.996 123.600,186.600 119.200 C 182.204 114.800,178.518 111.200,178.408 111.200 C 178.298 111.200,181.804 114.800,186.200 119.200 M276.400 132.584 C 284.870 141.156,291.845 148.251,291.900 148.351 C 291.955 148.451,292.083 148.450,292.184 148.349 C 292.286 148.248,285.311 141.153,276.684 132.582 L 261.000 117.000 276.400 132.584 M206.600 139.200 C 209.894 142.500,212.680 145.200,212.790 145.200 C 212.900 145.200,210.294 142.500,207.000 139.200 C 203.706 135.900,200.920 133.200,200.810 133.200 C 200.700 133.200,203.306 135.900,206.600 139.200 M92.493 154.800 C 92.493 155.570,92.575 155.885,92.676 155.500 C 92.776 155.115,92.776 154.485,92.676 154.100 C 92.575 153.715,92.493 154.030,92.493 154.800 M213.986 163.900 L 211.800 166.200 214.013 164.100 L 216.225 162.000 253.987 162.000 L 291.750 162.000 290.576 163.300 L 289.402 164.600 290.901 163.222 C 291.725 162.463,292.400 161.788,292.400 161.722 C 292.400 161.655,275.249 161.600,254.286 161.600 L 216.173 161.600 213.986 163.900 M101.800 171.200 C 105.535 174.940,108.681 178.000,108.791 178.000 C 108.901 178.000,105.935 174.940,102.200 171.200 C 98.465 167.460,95.319 164.400,95.209 164.400 C 95.099 164.400,98.065 167.460,101.800 171.200 M208.185 169.700 L 206.200 171.800 208.300 169.815 C 210.251 167.971,210.583 167.600,210.285 167.600 C 210.222 167.600,209.277 168.545,208.185 169.700 M284.975 168.900 L 283.800 170.200 285.100 169.025 C 285.815 168.379,286.400 167.794,286.400 167.725 C 286.400 167.416,286.070 167.688,284.975 168.900 M191.798 186.100 L 179.000 199.000 191.900 186.202 C 203.889 174.309,204.980 173.200,204.698 173.200 C 204.641 173.200,198.836 179.005,191.798 186.100 M44.200 190.000 C 53.218 199.020,60.686 206.400,60.796 206.400 C 60.906 206.400,53.618 199.020,44.600 190.000 C 35.582 180.980,28.114 173.600,28.004 173.600 C 27.894 173.600,35.182 180.980,44.200 190.000 M117.400 187.200 C 120.915 190.720,123.881 193.600,123.991 193.600 C 124.101 193.600,121.315 190.720,117.800 187.200 C 114.285 183.680,111.319 180.800,111.209 180.800 C 111.099 180.800,113.885 183.680,117.400 187.200 M128.600 198.800 C 129.459 199.680,130.252 200.400,130.362 200.400 C 130.472 200.400,129.859 199.680,129.000 198.800 C 128.141 197.920,127.348 197.200,127.238 197.200 C 127.128 197.200,127.741 197.920,128.600 198.800 M135.800 206.000 C 138.433 208.640,140.677 210.800,140.787 210.800 C 140.897 210.800,138.833 208.640,136.200 206.000 C 133.567 203.360,131.323 201.200,131.213 201.200 C 131.103 201.200,133.167 203.360,135.800 206.000 M223.599 230.700 L 194.600 259.800 223.700 230.801 C 250.751 203.844,252.979 201.600,252.699 201.600 C 252.643 201.600,239.548 214.695,223.599 230.700 M163.785 214.500 L 161.800 216.600 163.900 214.615 C 165.055 213.523,166.000 212.578,166.000 212.515 C 166.000 212.217,165.629 212.549,163.785 214.500 M84.800 231.000 C 92.168 238.370,98.286 244.400,98.396 244.400 C 98.506 244.400,92.568 238.370,85.200 231.000 C 77.832 223.630,71.714 217.600,71.604 217.600 C 71.494 217.600,77.432 223.630,84.800 231.000 M101.400 247.600 C 102.928 249.140,104.269 250.400,104.379 250.400 C 104.489 250.400,103.328 249.140,101.800 247.600 C 100.272 246.060,98.931 244.800,98.821 244.800 C 98.711 244.800,99.872 246.060,101.400 247.600 M107.400 254.000 C 108.259 254.880,109.052 255.600,109.162 255.600 C 109.272 255.600,108.659 254.880,107.800 254.000 C 106.941 253.120,106.148 252.400,106.038 252.400 C 105.928 252.400,106.541 253.120,107.400 254.000 M112.800 259.400 C 113.546 260.170,114.247 260.800,114.357 260.800 C 114.467 260.800,113.946 260.170,113.200 259.400 C 112.454 258.630,111.753 258.000,111.643 258.000 C 111.533 258.000,112.054 258.630,112.800 259.400 M126.200 272.800 C 132.357 278.960,137.485 284.000,137.595 284.000 C 137.705 284.000,132.757 278.960,126.600 272.800 C 120.443 266.640,115.315 261.600,115.205 261.600 C 115.095 261.600,120.043 266.640,126.200 272.800 M190.575 263.700 L 189.400 265.000 190.700 263.825 C 191.912 262.730,192.184 262.400,191.875 262.400 C 191.806 262.400,191.221 262.985,190.575 263.700 M184.975 269.300 L 183.800 270.600 185.100 269.425 C 186.312 268.330,186.584 268.000,186.275 268.000 C 186.206 268.000,185.621 268.585,184.975 269.300 M179.375 274.900 L 178.200 276.200 179.500 275.025 C 180.712 273.930,180.984 273.600,180.675 273.600 C 180.606 273.600,180.021 274.185,179.375 274.900 M173.775 280.500 L 172.600 281.800 173.900 280.625 C 175.112 279.530,175.384 279.200,175.075 279.200 C 175.006 279.200,174.421 279.785,173.775 280.500 M168.175 286.100 L 167.000 287.400 168.300 286.225 C 169.512 285.130,169.784 284.800,169.475 284.800 C 169.406 284.800,168.821 285.385,168.175 286.100 M140.600 287.200 C 141.459 288.080,142.252 288.800,142.362 288.800 C 142.472 288.800,141.859 288.080,141.000 287.200 C 140.141 286.320,139.348 285.600,139.238 285.600 C 139.128 285.600,139.741 286.320,140.600 287.200 M164.778 289.900 L 163.400 291.400 164.900 290.022 C 166.296 288.738,166.584 288.400,166.278 288.400 C 166.212 288.400,165.537 289.075,164.778 289.900 M145.688 292.213 C 146.286 292.843,146.847 293.277,146.935 293.179 C 147.023 293.080,146.533 292.565,145.847 292.034 L 144.600 291.069 145.688 292.213 M152.700 294.289 C 153.415 294.378,154.585 294.378,155.300 294.289 C 156.015 294.201,155.430 294.128,154.000 294.128 C 152.570 294.128,151.985 294.201,152.700 294.289 " stroke="none" fill="#dc7484" fill-rule="evenodd"></path><path id="path4" d="M143.375 21.300 L 142.200 22.600 143.500 21.425 C 144.215 20.779,144.800 20.194,144.800 20.125 C 144.800 19.816,144.470 20.088,143.375 21.300 M137.781 26.900 L 136.200 28.600 137.900 27.019 C 138.835 26.149,139.600 25.384,139.600 25.319 C 139.600 25.016,139.252 25.319,137.781 26.900 M175.000 31.600 C 176.083 32.700,177.060 33.600,177.170 33.600 C 177.280 33.600,176.483 32.700,175.400 31.600 C 174.317 30.500,173.340 29.600,173.230 29.600 C 173.120 29.600,173.917 30.500,175.000 31.600 M179.800 36.400 C 181.106 37.720,182.265 38.800,182.375 38.800 C 182.485 38.800,181.506 37.720,180.200 36.400 C 178.894 35.080,177.735 34.000,177.625 34.000 C 177.515 34.000,178.494 35.080,179.800 36.400 M185.000 41.600 C 186.306 42.920,187.465 44.000,187.575 44.000 C 187.685 44.000,186.706 42.920,185.400 41.600 C 184.094 40.280,182.935 39.200,182.825 39.200 C 182.715 39.200,183.694 40.280,185.000 41.600 M195.200 51.800 C 199.266 55.870,202.682 59.200,202.792 59.200 C 202.902 59.200,199.666 55.870,195.600 51.800 C 191.534 47.730,188.118 44.400,188.008 44.400 C 187.898 44.400,191.134 47.730,195.200 51.800 M218.800 75.000 C 219.546 75.770,220.247 76.400,220.357 76.400 C 220.467 76.400,219.946 75.770,219.200 75.000 C 218.454 74.230,217.753 73.600,217.643 73.600 C 217.533 73.600,218.054 74.230,218.800 75.000 M224.400 80.600 C 225.146 81.370,225.847 82.000,225.957 82.000 C 226.067 82.000,225.546 81.370,224.800 80.600 C 224.054 79.830,223.353 79.200,223.243 79.200 C 223.133 79.200,223.654 79.830,224.400 80.600 M239.800 96.000 C 245.957 102.160,251.085 107.200,251.195 107.200 C 251.305 107.200,246.357 102.160,240.200 96.000 C 234.043 89.840,228.915 84.800,228.805 84.800 C 228.695 84.800,233.643 89.840,239.800 96.000 M73.775 90.500 L 72.600 91.800 73.900 90.625 C 75.112 89.530,75.384 89.200,75.075 89.200 C 75.006 89.200,74.421 89.785,73.775 90.500 M152.900 93.887 C 153.505 93.978,154.495 93.978,155.100 93.887 C 155.705 93.795,155.210 93.720,154.000 93.720 C 152.790 93.720,152.295 93.795,152.900 93.887 M67.775 96.500 L 66.600 97.800 67.900 96.625 C 69.112 95.530,69.384 95.200,69.075 95.200 C 69.006 95.200,68.421 95.785,67.775 96.500 M134.400 107.000 C 128.133 113.270,123.095 118.400,123.205 118.400 C 123.315 118.400,128.533 113.270,134.800 107.000 C 141.067 100.730,146.105 95.600,145.995 95.600 C 145.885 95.600,140.667 100.730,134.400 107.000 M176.200 109.600 C 179.494 112.900,182.280 115.600,182.390 115.600 C 182.500 115.600,179.894 112.900,176.600 109.600 C 173.306 106.300,170.520 103.600,170.410 103.600 C 170.300 103.600,172.906 106.300,176.200 109.600 M254.400 110.600 C 255.595 111.810,256.663 112.800,256.773 112.800 C 256.883 112.800,255.995 111.810,254.800 110.600 C 253.605 109.390,252.537 108.400,252.427 108.400 C 252.317 108.400,253.205 109.390,254.400 110.600 M259.183 115.300 C 260.164 116.345,261.019 117.200,261.083 117.200 C 261.384 117.200,261.066 116.841,259.300 115.183 L 257.400 113.400 259.183 115.300 M33.600 130.600 C 24.692 139.510,17.494 146.800,17.604 146.800 C 17.714 146.800,25.092 139.510,34.000 130.600 C 42.908 121.690,50.106 114.400,49.996 114.400 C 49.886 114.400,42.508 121.690,33.600 130.600 M186.000 119.400 C 186.746 120.170,187.447 120.800,187.557 120.800 C 187.667 120.800,187.146 120.170,186.400 119.400 C 185.654 118.630,184.953 118.000,184.843 118.000 C 184.733 118.000,185.254 118.630,186.000 119.400 M200.200 133.200 C 203.494 136.500,206.280 139.200,206.390 139.200 C 206.500 139.200,203.894 136.500,200.600 133.200 C 197.306 129.900,194.520 127.200,194.410 127.200 C 194.300 127.200,196.906 129.900,200.200 133.200 M280.200 136.000 C 281.283 137.100,282.260 138.000,282.370 138.000 C 282.480 138.000,281.683 137.100,280.600 136.000 C 279.517 134.900,278.540 134.000,278.430 134.000 C 278.320 134.000,279.117 134.900,280.200 136.000 M285.800 141.600 C 286.883 142.700,287.860 143.600,287.970 143.600 C 288.080 143.600,287.283 142.700,286.200 141.600 C 285.117 140.500,284.140 139.600,284.030 139.600 C 283.920 139.600,284.717 140.500,285.800 141.600 M290.981 146.700 L 292.562 148.400 254.407 148.400 L 216.252 148.400 215.226 147.500 L 214.200 146.600 215.170 147.700 L 216.139 148.800 254.470 148.800 C 275.551 148.800,292.800 148.657,292.800 148.481 C 292.800 148.306,292.035 147.451,291.100 146.581 L 289.400 145.000 290.981 146.700 M16.124 155.000 C 16.126 156.320,16.201 156.812,16.290 156.093 C 16.379 155.374,16.377 154.294,16.286 153.693 C 16.195 153.092,16.122 153.680,16.124 155.000 M92.893 157.200 C 92.893 157.970,92.975 158.285,93.076 157.900 C 93.176 157.515,93.176 156.885,93.076 156.500 C 92.975 156.115,92.893 156.430,92.893 157.200 M208.000 169.400 C 203.714 173.690,200.298 177.200,200.408 177.200 C 200.518 177.200,204.114 173.690,208.400 169.400 C 212.686 165.110,216.102 161.600,215.992 161.600 C 215.882 161.600,212.286 165.110,208.000 169.400 M286.795 167.500 L 281.000 173.400 286.900 167.605 C 292.381 162.222,292.981 161.600,292.695 161.600 C 292.637 161.600,289.982 164.255,286.795 167.500 M22.800 168.600 C 25.543 171.350,27.878 173.600,27.988 173.600 C 28.098 173.600,25.943 171.350,23.200 168.600 C 20.457 165.850,18.122 163.600,18.012 163.600 C 17.902 163.600,20.057 165.850,22.800 168.600 M98.793 167.700 C 102.687 171.694,103.200 172.182,103.200 171.893 C 103.200 171.834,101.265 169.899,98.900 167.593 L 94.600 163.400 98.793 167.700 M113.800 183.200 C 116.654 186.060,119.078 188.400,119.188 188.400 C 119.298 188.400,117.054 186.060,114.200 183.200 C 111.346 180.340,108.922 178.000,108.812 178.000 C 108.702 178.000,110.946 180.340,113.800 183.200 M196.585 180.900 L 194.600 183.000 196.700 181.015 C 197.855 179.923,198.800 178.978,198.800 178.915 C 198.800 178.617,198.429 178.949,196.585 180.900 M192.175 185.300 L 191.000 186.600 192.300 185.425 C 193.512 184.330,193.784 184.000,193.475 184.000 C 193.406 184.000,192.821 184.585,192.175 185.300 M41.000 187.200 C 41.859 188.080,42.652 188.800,42.762 188.800 C 42.872 188.800,42.259 188.080,41.400 187.200 C 40.541 186.320,39.748 185.600,39.638 185.600 C 39.528 185.600,40.141 186.320,41.000 187.200 M46.600 192.800 C 47.459 193.680,48.252 194.400,48.362 194.400 C 48.472 194.400,47.859 193.680,47.000 192.800 C 46.141 191.920,45.348 191.200,45.238 191.200 C 45.128 191.200,45.741 191.920,46.600 192.800 M56.600 202.800 C 60.335 206.540,63.481 209.600,63.591 209.600 C 63.701 209.600,60.735 206.540,57.000 202.800 C 53.265 199.060,50.119 196.000,50.009 196.000 C 49.899 196.000,52.865 199.060,56.600 202.800 M131.400 201.200 C 134.033 203.840,136.277 206.000,136.387 206.000 C 136.497 206.000,134.433 203.840,131.800 201.200 C 129.167 198.560,126.923 196.400,126.813 196.400 C 126.703 196.400,128.767 198.560,131.400 201.200 M176.985 200.900 L 175.000 203.000 177.100 201.015 C 178.255 199.923,179.200 198.978,179.200 198.915 C 179.200 198.617,178.829 198.949,176.985 200.900 M171.385 206.500 L 169.400 208.600 171.500 206.615 C 172.655 205.523,173.600 204.578,173.600 204.515 C 173.600 204.217,173.229 204.549,171.385 206.500 M164.791 213.100 L 161.400 216.600 164.900 213.209 C 168.151 210.059,168.582 209.600,168.291 209.600 C 168.231 209.600,166.656 211.175,164.791 213.100 M66.600 212.800 C 67.906 214.120,69.065 215.200,69.175 215.200 C 69.285 215.200,68.306 214.120,67.000 212.800 C 65.694 211.480,64.535 210.400,64.425 210.400 C 64.315 210.400,65.294 211.480,66.600 212.800 M144.000 214.125 C 144.000 214.194,144.585 214.779,145.300 215.425 L 146.600 216.600 145.425 215.300 C 144.330 214.088,144.000 213.816,144.000 214.125 M153.505 217.883 C 154.002 217.979,154.722 217.975,155.105 217.875 C 155.487 217.775,155.080 217.696,154.200 217.701 C 153.320 217.705,153.007 217.787,153.505 217.883 M85.000 231.600 C 86.083 232.700,87.060 233.600,87.170 233.600 C 87.280 233.600,86.483 232.700,85.400 231.600 C 84.317 230.500,83.340 229.600,83.230 229.600 C 83.120 229.600,83.917 230.500,85.000 231.600 M223.375 231.300 L 222.200 232.600 223.500 231.425 C 224.215 230.779,224.800 230.194,224.800 230.125 C 224.800 229.816,224.470 230.088,223.375 231.300 M218.585 236.100 L 216.600 238.200 218.700 236.215 C 220.651 234.371,220.983 234.000,220.685 234.000 C 220.622 234.000,219.677 234.945,218.585 236.100 M97.200 243.800 C 101.926 248.530,105.883 252.400,105.993 252.400 C 106.103 252.400,102.326 248.530,97.600 243.800 C 92.874 239.070,88.917 235.200,88.807 235.200 C 88.697 235.200,92.474 239.070,97.200 243.800 M213.186 241.500 L 211.000 243.800 213.300 241.614 C 215.437 239.582,215.783 239.200,215.486 239.200 C 215.424 239.200,214.389 240.235,213.186 241.500 M207.787 246.900 L 205.400 249.400 207.900 247.013 C 209.275 245.699,210.400 244.574,210.400 244.513 C 210.400 244.217,210.005 244.578,207.787 246.900 M202.187 252.500 L 199.800 255.000 202.300 252.613 C 203.675 251.299,204.800 250.174,204.800 250.113 C 204.800 249.817,204.405 250.178,202.187 252.500 M182.798 271.900 L 166.200 288.600 182.900 272.002 C 198.422 256.575,199.780 255.200,199.498 255.200 C 199.442 255.200,191.927 262.715,182.798 271.900 M109.200 255.725 C 109.200 255.794,109.785 256.379,110.500 257.025 L 111.800 258.200 110.625 256.900 C 109.530 255.688,109.200 255.416,109.200 255.725 M136.000 283.000 C 141.607 288.610,146.284 293.200,146.394 293.200 C 146.504 293.200,142.007 288.610,136.400 283.000 C 130.793 277.390,126.116 272.800,126.006 272.800 C 125.896 272.800,130.393 277.390,136.000 283.000 " stroke="none" fill="#d1445a" fill-rule="evenodd"></path></g></svg>