<svg id="svg" version="1.1" xmlns="http://www.w3.org/2000/svg" xmlns:xlink="http://www.w3.org/1999/xlink" width="400" height="309.8346388163621" viewBox="0, 0, 400,309.8346388163621"><g id="svgg"><path id="path0" d="M151.610 17.878 C 150.098 18.142,148.188 18.743,146.914 19.356 L 145.437 20.066 81.946 83.517 C 24.059 141.367,18.425 147.046,18.125 147.853 C 16.541 152.105,16.803 159.270,18.663 162.588 C 19.549 164.167,145.912 291.733,147.094 292.242 C 150.857 293.861,157.287 293.845,161.021 292.209 C 161.862 291.840,168.933 284.802,226.652 226.881 L 291.340 161.967 253.807 161.918 L 216.275 161.869 198.532 179.759 C 188.774 189.599,176.516 201.932,171.291 207.166 L 161.793 216.681 160.400 217.113 C 156.270 218.395,150.320 218.248,146.940 216.782 C 145.478 216.148,94.976 164.538,94.037 162.718 C 92.025 158.819,91.967 151.613,93.913 147.277 C 94.693 145.541,144.733 95.671,146.562 94.808 C 151.089 92.671,157.253 92.655,161.598 94.769 C 162.771 95.340,164.258 96.769,189.556 121.652 L 216.275 147.933 253.866 147.944 L 291.456 147.955 290.680 147.155 C 285.645 141.969,162.704 20.159,162.172 19.829 C 159.640 18.257,154.680 17.341,151.610 17.878 " stroke="none" fill="#fbfbfb" fill-rule="evenodd"></path><path id="path1" d="M0.000 154.743 L 0.000 309.487 120.121 309.487 L 240.241 309.487 242.009 309.129 C 248.597 307.797,259.587 302.238,268.221 295.870 C 270.836 293.942,296.392 269.449,342.645 224.544 C 374.596 193.523,387.525 180.562,391.728 175.338 C 400.320 164.657,402.150 154.468,397.297 144.332 C 393.886 137.206,389.895 132.727,364.382 107.397 C 344.874 88.029,279.094 23.696,271.279 16.343 C 264.569 10.028,248.869 1.548,241.513 0.266 C 240.157 0.029,226.819 -0.000,119.995 -0.000 L 0.000 0.000 0.000 154.743 M156.874 17.833 C 158.772 18.171,160.796 18.880,162.020 19.634 C 162.917 20.187,225.406 82.026,284.508 140.848 L 291.645 147.951 253.927 147.953 L 216.209 147.955 189.478 121.694 C 165.334 97.975,162.637 95.380,161.621 94.879 C 157.438 92.820,151.187 92.823,146.750 94.885 L 145.285 95.566 120.118 120.669 C 106.277 134.476,94.736 146.087,94.471 146.472 C 92.045 149.996,92.071 160.049,94.514 163.413 C 95.672 165.008,145.886 216.167,146.663 216.543 C 149.446 217.890,154.587 218.262,158.710 217.415 C 161.920 216.755,159.364 219.136,189.313 188.903 L 216.256 161.706 253.931 161.706 L 291.606 161.706 289.541 163.838 C 274.705 179.160,161.900 291.928,161.010 292.327 C 157.221 294.027,150.085 293.974,146.805 292.222 C 146.295 291.950,130.632 276.242,98.497 243.777 C 72.343 217.354,43.709 188.437,34.868 179.517 C 17.105 161.597,18.350 163.017,17.460 159.674 C 16.599 156.443,16.818 151.175,17.945 147.982 C 18.359 146.811,144.512 20.536,146.301 19.502 C 149.005 17.939,153.494 17.230,156.874 17.833 M296.137 299.410 C 293.034 299.803,291.023 302.777,291.802 305.818 C 293.374 311.955,302.350 310.778,302.350 304.435 C 302.350 301.203,299.592 298.973,296.137 299.410 M298.695 300.948 C 300.283 301.772,301.166 303.679,300.775 305.440 C 299.837 309.662,294.007 309.521,293.206 305.256 C 292.619 302.127,295.941 299.520,298.695 300.948 M295.257 301.951 C 294.871 302.025,294.865 302.065,294.865 304.712 L 294.865 307.398 295.561 307.398 L 296.258 307.398 296.258 306.353 C 296.258 304.691,297.383 304.829,297.880 306.552 C 298.164 307.536,299.725 307.902,299.490 306.930 C 299.150 305.525,299.017 305.157,298.779 304.959 C 298.551 304.770,298.574 304.690,298.954 304.338 C 300.540 302.868,298.231 301.378,295.257 301.951 M297.615 303.081 C 298.144 303.609,297.639 304.265,296.704 304.265 C 296.299 304.265,296.258 304.200,296.258 303.568 C 296.258 302.828,297.071 302.536,297.615 303.081 " stroke="none" fill="#e41c34" fill-rule="evenodd"></path><path id="path2" d="M153.477 17.706 C 153.786 17.745,154.335 17.745,154.696 17.708 C 155.057 17.670,154.804 17.638,154.134 17.638 C 153.464 17.637,153.168 17.668,153.477 17.706 M139.947 25.544 L 134.639 30.896 139.991 25.589 C 144.966 20.656,145.422 20.191,145.299 20.191 C 145.275 20.191,142.866 22.600,139.947 25.544 M174.674 32.028 C 176.299 33.655,177.668 34.987,177.716 34.987 C 177.764 34.987,176.473 33.655,174.848 32.028 C 173.222 30.400,171.853 29.069,171.805 29.069 C 171.758 29.069,173.048 30.400,174.674 32.028 M198.172 55.352 C 199.798 56.980,201.167 58.312,201.215 58.312 C 201.262 58.312,199.972 56.980,198.346 55.352 C 196.721 53.725,195.352 52.393,195.304 52.393 C 195.256 52.393,196.547 53.725,198.172 55.352 M221.671 78.677 C 223.296 80.305,224.665 81.636,224.713 81.636 C 224.761 81.636,223.470 80.305,221.845 78.677 C 220.220 77.050,218.851 75.718,218.803 75.718 C 218.755 75.718,220.046 77.050,221.671 78.677 M153.307 93.252 C 153.714 93.289,154.380 93.289,154.787 93.252 C 155.194 93.215,154.861 93.185,154.047 93.185 C 153.233 93.185,152.900 93.215,153.307 93.252 M138.032 102.654 L 131.332 109.399 138.077 102.699 C 141.786 99.013,144.822 95.978,144.822 95.954 C 144.822 95.831,144.260 96.385,138.032 102.654 M245.257 102.089 C 246.930 103.764,248.338 105.135,248.386 105.135 C 248.434 105.135,247.104 103.764,245.431 102.089 C 243.757 100.413,242.349 99.043,242.301 99.043 C 242.254 99.043,243.583 100.413,245.257 102.089 M167.972 100.483 C 167.972 100.509,168.579 101.116,169.321 101.832 L 170.670 103.133 169.369 101.784 C 168.161 100.531,167.972 100.356,167.972 100.483 M177.894 110.231 C 177.894 110.257,178.501 110.864,179.243 111.580 L 180.592 112.881 179.291 111.532 C 178.082 110.279,177.894 110.103,177.894 110.231 M188.947 121.149 C 189.612 121.819,190.195 122.367,190.243 122.367 C 190.291 122.367,189.786 121.819,189.121 121.149 C 188.456 120.479,187.873 119.930,187.825 119.930 C 187.777 119.930,188.282 120.479,188.947 121.149 M268.842 125.500 C 270.468 127.128,271.837 128.460,271.885 128.460 C 271.933 128.460,270.642 127.128,269.017 125.500 C 267.391 123.873,266.022 122.541,265.974 122.541 C 265.926 122.541,267.217 123.873,268.842 125.500 M197.563 129.552 C 197.563 129.578,198.170 130.185,198.912 130.901 L 200.261 132.202 198.960 130.853 C 197.752 129.600,197.563 129.424,197.563 129.552 M25.587 139.687 C 21.711 143.564,18.579 146.736,18.627 146.736 C 18.674 146.736,21.885 143.564,25.762 139.687 C 29.638 135.809,32.770 132.637,32.722 132.637 C 32.675 132.637,29.464 135.809,25.587 139.687 M207.485 139.299 C 207.485 139.326,208.092 139.933,208.834 140.648 L 210.183 141.950 208.882 140.601 C 207.673 139.348,207.485 139.172,207.485 139.299 M290.426 146.910 C 290.995 147.485,291.499 147.955,291.547 147.955 C 291.595 147.955,291.169 147.485,290.601 146.910 C 290.032 146.336,289.528 145.866,289.480 145.866 C 289.432 145.866,289.858 146.336,290.426 146.910 M16.947 154.743 C 16.947 155.653,16.976 156.025,17.012 155.570 C 17.048 155.115,17.048 154.371,17.012 153.916 C 16.976 153.462,16.947 153.834,16.947 154.743 M92.492 154.830 C 92.492 155.788,92.521 156.157,92.557 155.651 C 92.592 155.145,92.592 154.362,92.556 153.911 C 92.520 153.459,92.491 153.873,92.492 154.830 M215.656 162.359 L 215.057 163.011 215.674 162.446 L 216.291 161.881 253.881 161.836 L 291.471 161.792 253.864 161.749 L 216.256 161.706 215.656 162.359 M98.869 168.233 C 99.389 168.760,99.853 169.191,99.901 169.191 C 99.949 169.191,99.563 168.760,99.043 168.233 C 98.523 167.707,98.058 167.276,98.010 167.276 C 97.962 167.276,98.349 167.707,98.869 168.233 M28.808 173.368 C 30.049 174.613,31.105 175.631,31.153 175.631 C 31.200 175.631,30.224 174.613,28.982 173.368 C 27.740 172.124,26.685 171.105,26.637 171.105 C 26.589 171.105,27.566 172.124,28.808 173.368 M106.179 175.718 C 106.699 176.245,107.164 176.675,107.212 176.675 C 107.260 176.675,106.873 176.245,106.353 175.718 C 105.833 175.191,105.369 174.761,105.321 174.761 C 105.273 174.761,105.659 175.191,106.179 175.718 M197.909 180.287 L 195.387 182.855 197.955 180.333 C 200.340 177.990,200.601 177.720,200.476 177.720 C 200.451 177.720,199.296 178.875,197.909 180.287 M113.490 183.203 C 114.010 183.729,114.475 184.160,114.522 184.160 C 114.570 184.160,114.184 183.729,113.664 183.203 C 113.144 182.676,112.679 182.245,112.632 182.245 C 112.584 182.245,112.970 182.676,113.490 183.203 M258.920 194.473 L 253.003 200.435 258.964 194.518 C 264.505 189.019,265.004 188.512,264.882 188.512 C 264.857 188.512,262.174 191.195,258.920 194.473 M46.388 191.123 C 47.630 192.367,48.685 193.386,48.733 193.386 C 48.781 193.386,47.804 192.367,46.562 191.123 C 45.320 189.878,44.265 188.860,44.217 188.860 C 44.170 188.860,45.146 189.878,46.388 191.123 M120.801 190.688 C 121.321 191.214,121.785 191.645,121.833 191.645 C 121.881 191.645,121.495 191.214,120.975 190.688 C 120.455 190.161,119.990 189.730,119.942 189.730 C 119.894 189.730,120.281 190.161,120.801 190.688 M128.111 198.172 C 128.631 198.699,129.096 199.130,129.144 199.130 C 129.192 199.130,128.805 198.699,128.285 198.172 C 127.765 197.646,127.301 197.215,127.253 197.215 C 127.205 197.215,127.591 197.646,128.111 198.172 M178.066 200.305 L 175.544 202.872 178.111 200.350 C 180.496 198.008,180.758 197.737,180.633 197.737 C 180.608 197.737,179.453 198.893,178.066 200.305 M135.422 205.657 C 135.942 206.184,136.407 206.614,136.455 206.614 C 136.502 206.614,136.116 206.184,135.596 205.657 C 135.076 205.131,134.612 204.700,134.564 204.700 C 134.516 204.700,134.902 205.131,135.422 205.657 M63.969 208.877 C 65.210 210.122,66.266 211.140,66.314 211.140 C 66.361 211.140,65.385 210.122,64.143 208.877 C 62.901 207.633,61.846 206.614,61.798 206.614 C 61.750 206.614,62.727 207.633,63.969 208.877 M142.820 213.229 C 143.388 213.803,143.892 214.273,143.940 214.273 C 143.988 214.273,143.562 213.803,142.994 213.229 C 142.425 212.654,141.921 212.185,141.873 212.185 C 141.826 212.185,142.251 212.654,142.820 213.229 M153.568 218.053 C 153.832 218.093,154.262 218.093,154.526 218.053 C 154.789 218.013,154.574 217.981,154.047 217.981 C 153.520 217.981,153.305 218.013,153.568 218.053 M81.462 226.545 C 82.656 227.742,83.672 228.721,83.720 228.721 C 83.768 228.721,82.830 227.742,81.636 226.545 C 80.442 225.348,79.426 224.369,79.379 224.369 C 79.331 224.369,80.268 225.348,81.462 226.545 M212.271 241.297 L 206.353 247.258 212.315 241.341 C 217.856 235.842,218.355 235.335,218.232 235.335 C 218.208 235.335,215.525 238.018,212.271 241.297 M98.956 244.212 C 100.197 245.457,101.253 246.475,101.300 246.475 C 101.348 246.475,100.371 245.457,99.130 244.212 C 97.888 242.968,96.833 241.950,96.785 241.950 C 96.737 241.950,97.714 242.968,98.956 244.212 M116.536 261.967 C 117.778 263.211,118.833 264.230,118.881 264.230 C 118.929 264.230,117.952 263.211,116.710 261.967 C 115.468 260.722,114.413 259.704,114.365 259.704 C 114.317 259.704,115.294 260.722,116.536 261.967 M134.117 279.721 C 135.358 280.966,136.414 281.984,136.461 281.984 C 136.509 281.984,135.532 280.966,134.291 279.721 C 133.049 278.477,131.994 277.459,131.946 277.459 C 131.898 277.459,132.875 278.477,134.117 279.721 M166.753 286.989 L 161.967 291.819 166.797 287.033 C 171.286 282.586,171.706 282.158,171.583 282.158 C 171.558 282.158,169.385 284.332,166.753 286.989 M153.568 293.597 C 153.832 293.637,154.262 293.637,154.526 293.597 C 154.789 293.557,154.574 293.525,154.047 293.525 C 153.520 293.525,153.305 293.557,153.568 293.597 " stroke="none" fill="#f49484" fill-rule="evenodd"></path><path id="path3" d="M168.842 26.197 C 170.420 27.776,171.750 29.069,171.798 29.069 C 171.845 29.069,170.594 27.776,169.017 26.197 C 167.439 24.617,166.109 23.325,166.061 23.325 C 166.014 23.325,167.265 24.617,168.842 26.197 M192.341 49.521 C 193.919 51.101,195.248 52.393,195.296 52.393 C 195.344 52.393,194.093 51.101,192.515 49.521 C 190.938 47.942,189.608 46.649,189.560 46.649 C 189.512 46.649,190.764 47.942,192.341 49.521 M215.840 72.846 C 217.417 74.426,218.747 75.718,218.795 75.718 C 218.843 75.718,217.591 74.426,216.014 72.846 C 214.436 71.266,213.107 69.974,213.059 69.974 C 213.011 69.974,214.262 71.266,215.840 72.846 M239.339 96.171 C 240.916 97.750,242.246 99.043,242.294 99.043 C 242.342 99.043,241.090 97.750,239.513 96.171 C 237.935 94.591,236.605 93.299,236.557 93.299 C 236.510 93.299,237.761 94.591,239.339 96.171 M49.608 115.709 L 32.637 132.724 49.652 115.753 C 65.470 99.976,66.745 98.695,66.623 98.695 C 66.599 98.695,58.942 106.351,49.608 115.709 M171.715 104.265 C 172.380 104.935,172.963 105.483,173.011 105.483 C 173.059 105.483,172.554 104.935,171.889 104.265 C 171.224 103.594,170.640 103.046,170.592 103.046 C 170.545 103.046,171.050 103.594,171.715 104.265 M123.585 117.102 L 115.840 124.891 123.629 117.146 C 127.913 112.886,131.419 109.381,131.419 109.357 C 131.419 109.234,130.784 109.862,123.585 117.102 M181.549 113.925 C 182.166 114.547,182.710 115.057,182.758 115.057 C 182.805 115.057,182.340 114.547,181.723 113.925 C 181.106 113.303,180.563 112.794,180.515 112.794 C 180.467 112.794,180.932 113.303,181.549 113.925 M262.924 119.582 C 264.550 121.210,265.919 122.541,265.967 122.541 C 266.014 122.541,264.724 121.210,263.098 119.582 C 261.473 117.955,260.104 116.623,260.056 116.623 C 260.008 116.623,261.299 117.955,262.924 119.582 M191.384 123.586 C 192.049 124.256,192.632 124.804,192.680 124.804 C 192.728 124.804,192.223 124.256,191.558 123.586 C 190.893 122.916,190.310 122.367,190.262 122.367 C 190.214 122.367,190.719 122.916,191.384 123.586 M201.305 133.333 C 201.970 134.003,202.554 134.552,202.602 134.552 C 202.649 134.552,202.145 134.003,201.480 133.333 C 200.815 132.663,200.231 132.115,200.183 132.115 C 200.136 132.115,200.640 132.663,201.305 133.333 M286.510 142.994 C 288.087 144.574,289.417 145.866,289.465 145.866 C 289.513 145.866,288.262 144.574,286.684 142.994 C 285.107 141.414,283.777 140.122,283.729 140.122 C 283.681 140.122,284.933 141.414,286.510 142.994 M211.140 142.994 C 211.757 143.616,212.301 144.125,212.349 144.125 C 212.396 144.125,211.931 143.616,211.314 142.994 C 210.697 142.372,210.154 141.862,210.106 141.862 C 210.058 141.862,210.523 142.372,211.140 142.994 M212.617 165.405 L 210.183 167.885 212.663 165.451 C 214.967 163.189,215.222 162.924,215.098 162.924 C 215.073 162.924,213.956 164.040,212.617 165.405 M24.369 168.930 C 25.563 170.126,26.579 171.105,26.627 171.105 C 26.674 171.105,25.737 170.126,24.543 168.930 C 23.349 167.733,22.333 166.754,22.285 166.754 C 22.238 166.754,23.175 167.733,24.369 168.930 M100.696 170.061 C 101.168 170.540,101.593 170.931,101.641 170.931 C 101.688 170.931,101.342 170.540,100.870 170.061 C 100.399 169.582,99.974 169.191,99.926 169.191 C 99.878 169.191,100.225 169.582,100.696 170.061 M108.007 177.546 C 108.478 178.024,108.903 178.416,108.951 178.416 C 108.999 178.416,108.653 178.024,108.181 177.546 C 107.710 177.067,107.285 176.675,107.237 176.675 C 107.189 176.675,107.535 177.067,108.007 177.546 M270.582 182.811 L 264.839 188.599 270.627 182.856 C 276.005 177.518,276.493 177.023,276.370 177.023 C 276.345 177.023,273.741 179.628,270.582 182.811 M192.948 185.248 L 190.513 187.728 192.994 185.294 C 194.358 183.955,195.474 182.839,195.474 182.813 C 195.474 182.689,195.210 182.944,192.948 185.248 M115.318 185.030 C 115.789 185.509,116.214 185.901,116.262 185.901 C 116.310 185.901,115.963 185.509,115.492 185.030 C 115.020 184.552,114.595 184.160,114.547 184.160 C 114.500 184.160,114.846 184.552,115.318 185.030 M41.950 186.684 C 43.143 187.881,44.159 188.860,44.207 188.860 C 44.255 188.860,43.317 187.881,42.124 186.684 C 40.930 185.487,39.914 184.508,39.866 184.508 C 39.818 184.508,40.756 185.487,41.950 186.684 M122.628 192.515 C 123.100 192.994,123.525 193.386,123.573 193.386 C 123.621 193.386,123.274 192.994,122.802 192.515 C 122.331 192.037,121.906 191.645,121.858 191.645 C 121.810 191.645,122.157 192.037,122.628 192.515 M130.026 200.087 C 130.546 200.614,131.011 201.044,131.059 201.044 C 131.106 201.044,130.720 200.614,130.200 200.087 C 129.680 199.560,129.216 199.130,129.168 199.130 C 129.120 199.130,129.506 199.560,130.026 200.087 M59.530 204.439 C 60.724 205.635,61.740 206.614,61.788 206.614 C 61.836 206.614,60.898 205.635,59.704 204.439 C 58.510 203.242,57.494 202.263,57.446 202.263 C 57.399 202.263,58.336 203.242,59.530 204.439 M173.105 205.265 L 170.670 207.746 173.151 205.311 C 174.515 203.972,175.631 202.856,175.631 202.831 C 175.631 202.706,175.366 202.961,173.105 205.265 M137.337 207.572 C 137.857 208.098,138.321 208.529,138.369 208.529 C 138.417 208.529,138.031 208.098,137.511 207.572 C 136.991 207.045,136.526 206.614,136.478 206.614 C 136.431 206.614,136.817 207.045,137.337 207.572 M144.735 215.144 C 145.206 215.622,145.631 216.014,145.679 216.014 C 145.727 216.014,145.380 215.622,144.909 215.144 C 144.437 214.665,144.012 214.273,143.964 214.273 C 143.916 214.273,144.263 214.665,144.735 215.144 M77.111 222.193 C 78.304 223.390,79.320 224.369,79.368 224.369 C 79.416 224.369,78.478 223.390,77.285 222.193 C 76.091 220.997,75.075 220.017,75.027 220.017 C 74.979 220.017,75.917 220.997,77.111 222.193 M224.020 229.547 L 218.190 235.422 224.064 229.592 C 229.524 224.173,230.017 223.673,229.895 223.673 C 229.870 223.673,227.227 226.316,224.020 229.547 M94.517 239.774 C 95.711 240.970,96.727 241.950,96.775 241.950 C 96.822 241.950,95.885 240.970,94.691 239.774 C 93.497 238.577,92.481 237.598,92.433 237.598 C 92.386 237.598,93.323 238.577,94.517 239.774 M112.097 257.528 C 113.291 258.725,114.307 259.704,114.355 259.704 C 114.403 259.704,113.465 258.725,112.272 257.528 C 111.078 256.332,110.062 255.352,110.014 255.352 C 109.966 255.352,110.904 256.332,112.097 257.528 M177.371 276.371 L 171.540 282.245 177.415 276.415 C 180.646 273.209,183.290 270.565,183.290 270.541 C 183.290 270.418,182.789 270.911,177.371 276.371 M129.678 275.283 C 130.872 276.480,131.888 277.459,131.936 277.459 C 131.983 277.459,131.046 276.480,129.852 275.283 C 128.658 274.086,127.642 273.107,127.594 273.107 C 127.547 273.107,128.484 274.086,129.678 275.283 M145.344 291.123 C 145.669 291.458,145.973 291.732,146.021 291.732 C 146.069 291.732,145.843 291.458,145.518 291.123 C 145.193 290.788,144.888 290.513,144.840 290.513 C 144.792 290.513,145.019 290.788,145.344 291.123 " stroke="none" fill="#ec7a6a" fill-rule="evenodd"></path><path id="path4" d="M164.404 21.758 C 165.261 22.620,166.002 23.325,166.050 23.325 C 166.098 23.325,165.436 22.620,164.578 21.758 C 163.720 20.896,162.979 20.191,162.932 20.191 C 162.884 20.191,163.546 20.896,164.404 21.758 M186.510 43.690 C 188.135 45.318,189.504 46.649,189.552 46.649 C 189.600 46.649,188.309 45.318,186.684 43.690 C 185.059 42.063,183.690 40.731,183.642 40.731 C 183.594 40.731,184.885 42.063,186.510 43.690 M210.009 67.015 C 211.634 68.642,213.003 69.974,213.051 69.974 C 213.099 69.974,211.808 68.642,210.183 67.015 C 208.557 65.387,207.188 64.056,207.140 64.056 C 207.093 64.056,208.383 65.387,210.009 67.015 M83.638 81.680 L 66.580 98.782 83.681 81.724 C 93.087 72.342,100.783 64.646,100.783 64.622 C 100.783 64.500,99.496 65.781,83.638 81.680 M233.507 90.339 C 235.133 91.967,236.502 93.299,236.550 93.299 C 236.598 93.299,235.307 91.967,233.681 90.339 C 232.056 88.712,230.687 87.380,230.639 87.380 C 230.591 87.380,231.882 88.712,233.507 90.339 M164.230 96.954 C 164.895 97.624,165.478 98.172,165.526 98.172 C 165.574 98.172,165.069 97.624,164.404 96.954 C 163.739 96.284,163.156 95.735,163.108 95.735 C 163.060 95.735,163.565 96.284,164.230 96.954 M174.151 106.701 C 174.816 107.372,175.400 107.920,175.448 107.920 C 175.495 107.920,174.991 107.372,174.326 106.701 C 173.660 106.031,173.077 105.483,173.029 105.483 C 172.981 105.483,173.486 106.031,174.151 106.701 M257.093 113.751 C 258.671 115.331,260.000 116.623,260.048 116.623 C 260.096 116.623,258.845 115.331,257.267 113.751 C 255.690 112.171,254.360 110.879,254.312 110.879 C 254.264 110.879,255.516 112.171,257.093 113.751 M183.899 116.275 C 184.564 116.945,185.147 117.493,185.195 117.493 C 185.243 117.493,184.738 116.945,184.073 116.275 C 183.408 115.605,182.825 115.057,182.777 115.057 C 182.729 115.057,183.234 115.605,183.899 116.275 M108.006 132.681 L 100.174 140.557 108.050 132.725 C 115.371 125.445,116.005 124.804,115.883 124.804 C 115.858 124.804,112.314 128.349,108.006 132.681 M193.821 126.023 C 194.486 126.693,195.069 127.241,195.117 127.241 C 195.165 127.241,194.660 126.693,193.995 126.023 C 193.330 125.352,192.746 124.804,192.699 124.804 C 192.651 124.804,193.156 125.352,193.821 126.023 M280.679 137.163 C 282.304 138.790,283.673 140.122,283.721 140.122 C 283.769 140.122,282.478 138.790,280.853 137.163 C 279.228 135.535,277.858 134.204,277.811 134.204 C 277.763 134.204,279.053 135.535,280.679 137.163 M203.742 135.770 C 204.407 136.440,204.991 136.989,205.039 136.989 C 205.086 136.989,204.581 136.440,203.916 135.770 C 203.251 135.100,202.668 134.552,202.620 134.552 C 202.572 134.552,203.077 135.100,203.742 135.770 M212.359 144.173 C 212.359 144.200,212.966 144.807,213.708 145.522 L 215.057 146.823 213.755 145.474 C 212.547 144.221,212.359 144.046,212.359 144.173 M20.627 165.187 C 21.484 166.049,22.225 166.754,22.273 166.754 C 22.321 166.754,21.658 166.049,20.801 165.187 C 19.943 164.326,19.202 163.621,19.154 163.621 C 19.106 163.621,19.769 164.326,20.627 165.187 M95.554 164.708 C 96.275 165.477,96.432 165.615,96.432 165.484 C 96.432 165.457,96.060 165.084,95.605 164.658 L 94.778 163.882 95.554 164.708 M282.157 171.236 L 276.327 177.111 282.202 171.280 C 285.433 168.074,288.077 165.430,288.077 165.406 C 288.077 165.283,287.576 165.776,282.157 171.236 M207.657 170.366 L 205.135 172.933 207.702 170.411 C 210.087 168.069,210.349 167.798,210.224 167.798 C 210.199 167.798,209.044 168.953,207.657 170.366 M102.524 171.889 C 103.044 172.415,103.509 172.846,103.556 172.846 C 103.604 172.846,103.218 172.415,102.698 171.889 C 102.178 171.362,101.713 170.931,101.666 170.931 C 101.618 170.931,102.004 171.362,102.524 171.889 M109.835 179.373 C 110.355 179.900,110.819 180.331,110.867 180.331 C 110.915 180.331,110.529 179.900,110.009 179.373 C 109.489 178.847,109.024 178.416,108.976 178.416 C 108.928 178.416,109.315 178.847,109.835 179.373 M37.511 182.245 C 38.753 183.490,39.808 184.508,39.856 184.508 C 39.904 184.508,38.927 183.490,37.685 182.245 C 36.443 181.001,35.388 179.983,35.340 179.983 C 35.292 179.983,36.269 181.001,37.511 182.245 M117.145 186.858 C 117.665 187.385,118.130 187.815,118.178 187.815 C 118.226 187.815,117.839 187.385,117.319 186.858 C 116.799 186.332,116.335 185.901,116.287 185.901 C 116.239 185.901,116.625 186.332,117.145 186.858 M187.987 190.209 L 185.466 192.776 188.033 190.255 C 190.418 187.912,190.679 187.641,190.555 187.641 C 190.530 187.641,189.374 188.797,187.987 190.209 M124.456 194.343 C 124.976 194.869,125.441 195.300,125.489 195.300 C 125.536 195.300,125.150 194.869,124.630 194.343 C 124.110 193.816,123.645 193.386,123.598 193.386 C 123.550 193.386,123.936 193.816,124.456 194.343 M55.091 200.000 C 56.333 201.245,57.388 202.263,57.436 202.263 C 57.484 202.263,56.507 201.245,55.265 200.000 C 54.024 198.755,52.968 197.737,52.921 197.737 C 52.873 197.737,53.850 198.755,55.091 200.000 M131.854 201.915 C 132.325 202.393,132.750 202.785,132.798 202.785 C 132.846 202.785,132.499 202.393,132.028 201.915 C 131.556 201.436,131.131 201.044,131.084 201.044 C 131.036 201.044,131.382 201.436,131.854 201.915 M168.144 210.226 L 165.622 212.794 168.190 210.272 C 170.575 207.929,170.836 207.659,170.711 207.659 C 170.686 207.659,169.531 208.814,168.144 210.226 M139.164 209.399 C 139.636 209.878,140.061 210.270,140.109 210.270 C 140.157 210.270,139.810 209.878,139.339 209.399 C 138.867 208.921,138.442 208.529,138.394 208.529 C 138.346 208.529,138.693 208.921,139.164 209.399 M235.682 217.885 L 229.852 223.760 235.727 217.930 C 238.958 214.723,241.601 212.079,241.601 212.055 C 241.601 211.932,241.101 212.425,235.682 217.885 M72.672 217.755 C 73.914 218.999,74.969 220.017,75.017 220.017 C 75.065 220.017,74.088 218.999,72.846 217.755 C 71.604 216.510,70.549 215.492,70.501 215.492 C 70.453 215.492,71.430 216.510,72.672 217.755 M90.165 235.422 C 91.359 236.619,92.375 237.598,92.423 237.598 C 92.471 237.598,91.533 236.619,90.339 235.422 C 89.146 234.225,88.130 233.246,88.082 233.246 C 88.034 233.246,88.972 234.225,90.165 235.422 M107.746 253.177 C 108.940 254.373,109.956 255.352,110.003 255.352 C 110.051 255.352,109.114 254.373,107.920 253.177 C 106.726 251.980,105.710 251.001,105.662 251.001 C 105.614 251.001,106.552 251.980,107.746 253.177 M189.033 264.708 L 183.203 270.583 189.077 264.753 C 192.309 261.546,194.952 258.903,194.952 258.878 C 194.952 258.755,194.451 259.249,189.033 264.708 M125.326 270.931 C 126.520 272.128,127.536 273.107,127.584 273.107 C 127.632 273.107,126.694 272.128,125.500 270.931 C 124.307 269.735,123.291 268.755,123.243 268.755 C 123.195 268.755,124.133 269.735,125.326 270.931 M142.733 288.512 C 143.831 289.613,144.768 290.513,144.816 290.513 C 144.864 290.513,144.005 289.613,142.907 288.512 C 141.809 287.411,140.872 286.510,140.824 286.510 C 140.776 286.510,141.635 287.411,142.733 288.512 " stroke="none" fill="#ec5454" fill-rule="evenodd"></path></g></svg>